<?xml version="1.0" standalone="no"?>
<!DOCTYPE svg PUBLIC "-//W3C//DTD SVG 20010904//EN"
 "http://www.w3.org/TR/2001/REC-SVG-20010904/DTD/svg10.dtd">
<svg version="1.0" xmlns="http://www.w3.org/2000/svg"
 width="350.000000pt" height="350.000000pt" viewBox="0 0 225.000000 225.000000"
 preserveAspectRatio="xMidYMid meet">

<g transform="translate(0.000000,225.000000) scale(0.100000,-0.100000)"
fill="#6ed6ff" stroke="none">
<path d="M890 2036 c0 -126 -1 -135 -20 -141 -36 -12 -73 -72 -73 -120 0 -100
105 -165 193 -120 93 48 99 182 9 233 l-29 17 0 133 0 132 -40 0 -40 0 0 -134z
m60 -5 l0 -129 35 -22 c81 -50 86 -154 9 -205 -55 -36 -126 -18 -165 42 -36
54 -13 129 51 166 l31 19 -1 121 c-1 67 -1 125 -1 130 1 4 10 7 21 7 19 0 20
-7 20 -129z"/>
<path d="M900 1837 c-49 -25 -52 -104 -5 -125 57 -26 105 2 105 61 0 38 -7 50
-37 66 -27 14 -32 14 -63 -2z m76 -32 c16 -25 12 -63 -10 -77 -17 -12 -61 -9
-74 4 -16 16 -16 70 0 86 21 21 66 14 84 -13z"/>
<path d="M1280 2036 c0 -126 -1 -135 -20 -141 -37 -12 -70 -67 -70 -119 0 -78
56 -136 133 -136 74 0 146 85 133 155 -8 39 -47 91 -76 100 -19 6 -20 16 -20
141 l0 134 -40 0 -40 0 0 -134z m68 -12 l3 -130 29 -18 c75 -44 78 -152 6
-200 -31 -20 -104 -21 -130 -1 -31 23 -56 68 -56 99 0 38 31 86 69 109 l31 18
0 130 c0 129 0 130 23 127 21 -3 22 -7 25 -134z"/>
<path d="M1290 1837 c-49 -25 -52 -104 -5 -125 57 -26 105 2 105 61 0 38 -7
50 -37 66 -27 14 -32 14 -63 -2z m77 -33 c15 -24 15 -29 2 -53 -16 -29 -61
-40 -85 -20 -17 14 -19 70 -2 87 22 22 66 14 85 -14z"/>
<path d="M412 1890 c-40 -25 -72 -75 -72 -115 0 -37 29 -87 69 -116 31 -23 31
-23 31 -121 0 -105 9 -136 52 -174 45 -42 83 -54 168 -54 l80 0 0 40 0 40 -79
0 c-71 0 -83 3 -110 26 -31 26 -31 26 -31 128 0 100 1 103 25 116 14 8 35 28
45 46 71 115 -63 254 -178 184z m101 -4 c101 -43 110 -161 17 -214 l-30 -17 0
-98 c0 -104 13 -147 49 -167 11 -5 56 -10 100 -10 80 0 81 0 81 -25 0 -25 -1
-25 -84 -25 -97 0 -136 19 -173 85 -19 34 -23 55 -23 142 0 92 -2 102 -20 108
-10 3 -31 20 -45 36 -50 60 -25 152 49 185 39 17 40 17 79 0z"/>
<path d="M445 1838 c-29 -16 -35 -28 -35 -70 0 -41 27 -68 68 -68 30 0 72 43
72 73 0 51 -63 90 -105 65z m73 -20 c7 -7 12 -26 12 -43 0 -38 -16 -55 -51
-55 -52 0 -77 54 -42 92 18 20 63 24 81 6z"/>
<path d="M1725 1900 c-11 -4 -33 -21 -48 -38 -55 -58 -42 -158 25 -200 l31
-20 -2 -98 c-2 -90 -4 -101 -26 -123 -21 -21 -36 -25 -109 -29 l-86 -5 0 -39
0 -40 93 8 c102 7 132 19 171 64 31 38 34 49 39 167 l3 92 43 38 c36 32 44 45
48 85 4 37 1 54 -16 81 -34 55 -109 81 -166 57z m82 -11 c15 -5 40 -22 56 -37
52 -50 26 -165 -43 -187 -18 -6 -20 -16 -20 -108 0 -87 -4 -108 -23 -142 -34
-60 -85 -85 -179 -85 -77 0 -78 0 -78 25 0 24 2 25 75 25 133 0 155 25 155
177 l-1 98 -32 20 c-47 29 -72 85 -58 128 13 38 44 71 81 86 33 13 34 13 67 0z"/>
<path d="M1741 1838 c-46 -24 -47 -104 -2 -127 46 -25 96 1 107 54 11 56 -53
100 -105 73z m73 -24 c19 -18 21 -65 4 -82 -7 -7 -26 -12 -43 -12 -38 0 -55
16 -55 51 0 34 24 59 55 59 13 0 31 -7 39 -16z"/>
<path d="M1049 1581 c-114 -24 -188 -124 -189 -254 0 -62 -3 -71 -29 -98 -37
-37 -44 -95 -40 -322 6 -252 3 -250 361 -245 l238 3 32 33 33 32 3 208 c4 224
-3 268 -43 300 -22 18 -25 27 -25 91 0 42 -6 87 -16 109 -19 47 -68 98 -117
124 -43 21 -150 32 -208 19z m184 -24 c91 -39 138 -113 145 -232 4 -71 8 -82
33 -108 l29 -29 0 -225 0 -225 -29 -29 -29 -29 -257 0 -257 0 -29 29 -29 29 0
221 0 220 30 34 c24 28 30 44 30 80 0 177 93 277 257 277 41 0 88 -6 106 -13z"/>
<path d="M1008 1500 c-55 -30 -79 -76 -85 -170 l-6 -80 207 0 206 0 0 65 c0
85 -22 139 -73 176 -37 27 -47 29 -126 29 -65 -1 -95 -6 -123 -20z m227 -15
c55 -32 75 -75 75 -159 l0 -66 -185 0 -185 0 0 65 c0 71 13 106 53 143 52 49
174 57 242 17z"/>
<path d="M871 1186 c-8 -9 -11 -79 -9 -232 l3 -219 260 0 260 0 3 219 c2 153
-1 223 -9 232 -17 20 -491 20 -508 0z m503 -22 c3 -9 6 -103 6 -210 l0 -194
-27 -11 c-33 -12 -457 -8 -470 4 -11 11 -17 281 -8 362 l7 65 243 0 c212 0
244 -2 249 -16z"/>
<path d="M1082 1080 c-30 -28 -33 -71 -6 -101 9 -10 14 -39 14 -82 l0 -67 40
0 40 0 0 73 c1 47 6 79 15 91 21 28 18 53 -10 81 -29 30 -64 32 -93 5z m82
-16 c20 -20 21 -58 1 -74 -11 -9 -15 -32 -15 -81 0 -67 -1 -69 -25 -69 -24 0
-25 2 -25 75 0 42 -4 75 -10 75 -5 0 -12 11 -16 25 -13 50 53 86 90 49z"/>
<path d="M170 1253 c-23 -9 -60 -45 -76 -75 -57 -109 83 -235 188 -170 19 12
40 33 48 47 13 25 14 25 147 25 l133 0 0 45 0 45 -134 0 c-126 0 -135 1 -141
20 -15 48 -109 83 -165 63z m107 -29 c12 -8 32 -28 45 -44 l22 -30 128 0 128
0 0 -25 0 -25 -129 0 -129 0 -27 -36 c-37 -48 -81 -66 -128 -53 -82 22 -115
124 -61 188 41 49 98 58 151 25z"/>
<path d="M190 1193 c-26 -9 -40 -35 -40 -74 0 -41 11 -54 57 -64 27 -5 37 -2
58 19 32 32 32 70 0 101 -23 24 -44 29 -75 18z m68 -25 c16 -16 16 -70 0 -86
-31 -31 -98 -3 -98 40 0 46 67 77 98 46z"/>
<path d="M1964 1241 c-17 -12 -37 -32 -44 -46 -13 -25 -15 -25 -147 -25 l-133
0 0 -45 0 -45 133 0 c133 0 134 0 147 -25 20 -37 71 -65 119 -65 35 0 49 7 84
39 40 37 42 43 42 95 0 51 -3 59 -37 92 -46 47 -115 57 -164 25z m110 -5 c104
-44 100 -196 -7 -224 -55 -15 -127 20 -143 70 -5 16 -18 18 -140 18 l-134 0 0
25 0 25 133 0 132 1 20 32 c17 28 75 67 98 67 4 0 22 -6 41 -14z"/>
<path d="M1991 1183 c-54 -46 -27 -127 43 -127 47 0 70 23 70 70 0 63 -66 96
-113 57z m91 -28 c26 -58 -26 -105 -82 -75 -24 13 -27 61 -4 84 25 26 72 20
86 -9z"/>
<path d="M664 1156 c-3 -8 -4 -27 -2 -43 3 -24 8 -28 41 -31 l37 -3 0 45 c0
46 0 46 -35 46 -22 0 -38 -6 -41 -14z m66 -31 c0 -20 -5 -25 -25 -25 -20 0
-25 5 -25 25 0 20 5 25 25 25 20 0 25 -5 25 -25z"/>
<path d="M1510 1125 l0 -45 40 0 40 0 0 45 0 45 -40 0 -40 0 0 -45z m60 0 c0
-20 -5 -25 -25 -25 -20 0 -25 5 -25 25 0 20 5 25 25 25 20 0 25 -5 25 -25z"/>
<path d="M550 924 c-86 -37 -110 -83 -110 -210 l0 -96 -45 -40 c-69 -61 -73
-127 -12 -194 80 -88 227 -28 227 92 0 46 -30 100 -65 116 -24 11 -25 14 -25
113 0 133 9 143 134 152 l86 6 0 38 0 39 -77 0 c-47 -1 -92 -7 -113 -16z m180
-29 c0 -24 -2 -25 -75 -25 -131 0 -155 -28 -155 -184 0 -55 4 -96 10 -96 22 0
80 -63 86 -95 12 -68 -49 -135 -123 -135 -97 0 -150 115 -88 189 14 16 35 33
45 36 18 6 20 16 20 106 0 117 17 163 77 204 33 22 48 25 120 25 82 0 83 0 83
-25z"/>
<path d="M450 543 c-26 -9 -40 -35 -40 -74 0 -44 17 -61 66 -62 67 -2 98 70
49 118 -23 24 -44 29 -75 18z m68 -25 c7 -7 12 -26 12 -43 0 -38 -16 -55 -51
-55 -34 0 -59 24 -59 55 0 13 7 31 16 39 18 19 65 21 82 4z"/>
<path d="M1510 900 l0 -40 75 0 c79 0 114 -10 132 -40 7 -10 13 -62 14 -115 2
-96 1 -98 -24 -111 -14 -8 -35 -30 -47 -50 -67 -108 57 -247 169 -189 80 41
104 126 56 197 -14 20 -33 39 -44 43 -17 5 -20 20 -26 113 -8 112 -18 143 -57
178 -45 42 -83 54 -168 54 l-80 0 0 -40z m211 -3 c66 -44 79 -77 79 -198 0
-83 3 -109 13 -109 19 0 64 -49 77 -84 25 -68 -37 -146 -117 -146 -38 0 -50 5
-79 34 -29 29 -34 41 -34 80 0 36 6 52 31 81 17 19 37 35 45 35 11 0 14 21 14
103 0 84 -4 108 -20 134 -22 37 -37 42 -135 45 -64 3 -70 5 -73 26 -3 21 -1
22 81 22 71 0 89 -4 118 -23z"/>
<path d="M1729 531 c-28 -22 -32 -83 -7 -107 20 -20 84 -22 103 -3 8 8 17 29
21 46 5 26 1 37 -19 57 -31 31 -66 33 -98 7z m89 -13 c17 -17 15 -64 -4 -82
-48 -49 -117 13 -84 75 12 22 68 27 88 7z"/>
<path d="M865 592 c-35 -22 -59 -55 -69 -95 -9 -39 25 -113 63 -135 l31 -17 0
-132 0 -133 40 0 40 0 0 134 c0 126 1 135 20 141 11 3 32 23 48 42 21 28 27
47 27 85 0 42 -5 52 -37 84 -45 46 -114 57 -163 26z m109 -6 c92 -39 102 -166
16 -211 l-29 -15 -3 -133 c-3 -128 -4 -132 -25 -135 -23 -3 -23 -3 -23 132 0
122 -2 135 -18 140 -32 10 -73 61 -79 99 -7 45 23 98 70 121 40 19 49 20 91 2z"/>
<path d="M886 527 c-51 -51 -22 -121 51 -121 42 0 63 23 63 69 0 41 -18 63
-57 71 -26 5 -37 1 -57 -19z m88 -13 c20 -20 20 -43 0 -72 -17 -24 -62 -30
-82 -10 -16 16 -16 70 0 86 17 17 64 15 82 -4z"/>
<path d="M1253 591 c-36 -23 -59 -53 -68 -93 -10 -38 27 -114 64 -136 l31 -17
0 -132 0 -133 40 0 40 0 0 135 c0 76 4 135 9 135 23 0 71 55 81 91 14 51 1 95
-40 134 -39 38 -111 45 -157 16z m112 -5 c40 -17 75 -68 75 -109 0 -40 -25
-83 -60 -103 l-29 -18 -3 -130 c-3 -127 -4 -131 -25 -134 -23 -3 -23 -3 -23
132 0 124 -1 135 -19 141 -35 11 -81 73 -81 108 0 43 33 95 73 112 41 18 50
18 92 1z"/>
<path d="M1277 530 c-65 -52 1 -158 75 -119 31 16 38 28 38 65 0 63 -62 94
-113 54z m90 -26 c15 -24 15 -29 2 -53 -17 -31 -68 -41 -89 -16 -16 19 -16 60
0 80 20 25 67 19 87 -11z"/>
</g>
</svg>
