<svg width="256" height="256" viewBox="0 0 256 256" fill="none" xmlns="http://www.w3.org/2000/svg">
<g clip-path="url(#clip0_1_50)">
<path d="M196 0H60C26.8629 0 0 26.8629 0 60V196C0 229.137 26.8629 256 60 256H196C229.137 256 256 229.137 256 196V60C256 26.8629 229.137 0 196 0Z" fill="#242938"/>
<path d="M131.382 68.19C121.609 75.0635 110.532 82.854 104.597 95.743C94.289 118.23 125.691 142.758 127.033 143.791C127.345 144.031 127.718 144.151 128.09 144.151C128.486 144.151 128.882 144.016 129.203 143.747C129.826 143.225 130.003 142.34 129.629 141.618C129.515 141.399 118.244 119.505 118.662 103.799C118.811 98.328 126.467 92.122 134.571 85.5519C141.995 79.534 150.41 72.7134 155.333 64.7345C166.141 47.1713 154.128 29.9015 154.005 29.7288C153.528 29.0588 152.648 28.8163 151.895 29.1464C151.142 29.4785 150.726 30.2919 150.897 31.0962C150.922 31.2106 153.258 42.631 146.757 54.3972C144.08 59.2593 138.196 63.3977 131.382 68.19Z" fill="#DB380E"/>
<path d="M172.556 75.9347C173.245 75.4154 173.448 74.4682 173.031 73.7122C172.613 72.9563 171.705 72.6229 170.897 72.9294C169.237 73.5606 130.242 88.5919 130.242 106.754C130.242 119.273 135.59 125.887 139.495 130.717C141.027 132.611 142.349 134.247 142.785 135.644C144.012 139.669 141.105 146.943 139.883 149.407C139.531 150.115 139.703 150.973 140.303 151.49C140.627 151.77 141.031 151.912 141.436 151.912C141.78 151.912 142.127 151.81 142.426 151.602C143.096 151.136 158.812 140.024 155.993 126.637C154.943 121.549 152.443 117.831 150.236 114.55C146.818 109.467 144.35 105.795 148.095 99.014C152.483 91.104 172.355 76.085 172.556 75.9347Z" fill="#DB380E"/>
<path d="M71.051 152.2C70.382 154.201 70.698 156.187 71.962 157.943C76.19 163.812 91.163 167.043 114.126 167.043H114.129C117.241 167.043 120.525 166.982 123.89 166.861C160.604 165.547 174.221 154.109 174.783 153.623C175.395 153.093 175.559 152.211 175.178 151.497C174.797 150.784 173.977 150.425 173.192 150.641C160.262 154.171 136.118 155.425 119.371 155.425C100.632 155.425 91.088 154.075 88.752 153.078C89.951 151.432 97.345 148.492 106.508 146.69C107.384 146.518 107.986 145.709 107.899 144.821C107.812 143.933 107.066 143.255 106.173 143.255C100.802 143.255 73.866 143.687 71.051 152.2Z" fill="#73A1FB"/>
<path d="M193.903 140.419C186.33 140.419 179.149 144.215 178.847 144.375C178.147 144.75 177.791 145.553 177.984 146.325C178.176 147.096 178.869 147.637 179.664 147.638C179.824 147.638 195.816 147.769 197.265 156.906C198.548 164.789 182.134 177.561 175.7 181.817C175.006 182.277 174.736 183.165 175.058 183.934C175.333 184.588 175.97 184.997 176.656 184.997C176.776 184.997 176.898 184.984 177.018 184.959C178.545 184.632 214.364 176.738 210.577 155.883C208.267 143.102 200.234 140.419 193.903 140.419Z" fill="#73A1FB"/>
<path d="M169.338 179.265C169.463 178.597 169.185 177.918 168.629 177.527L160.04 171.511C159.621 171.218 159.092 171.126 158.6 171.256C158.511 171.279 149.529 173.64 136.489 175.088C131.314 175.668 125.518 175.975 119.725 175.975C106.689 175.975 98.165 174.443 96.924 173.32C96.759 173.004 96.811 172.861 96.841 172.781C97.066 172.154 98.275 171.409 99.054 171.114C99.915 170.795 100.378 169.861 100.111 168.983C99.844 168.105 98.939 167.588 98.046 167.802C89.43 169.881 85.217 172.789 85.524 176.443C86.068 182.923 101.077 186.249 113.765 187.128C115.59 187.253 117.563 187.316 119.629 187.316H119.632C140.731 187.316 167.778 180.696 168.049 180.629C168.709 180.468 169.213 179.934 169.338 179.265Z" fill="#73A1FB"/>
<path d="M104.587 193.172C105.238 192.749 105.526 191.944 105.295 191.204C105.065 190.463 104.373 189.976 103.594 189.987C102.44 190.017 92.297 190.475 91.587 196.933C91.372 198.863 91.924 200.626 93.23 202.173C96.872 206.489 106.703 209.055 123.279 210.016C125.24 210.133 127.232 210.192 129.2 210.192C150.274 210.192 164.468 203.594 165.062 203.313C165.638 203.04 166.018 202.474 166.052 201.838C166.086 201.202 165.768 200.598 165.225 200.266L154.371 193.64C153.994 193.41 153.543 193.334 153.114 193.422C153.045 193.436 146.153 194.866 135.753 196.278C133.785 196.545 131.32 196.681 128.429 196.681C118.039 196.681 106.484 194.984 104.267 193.872C104.235 193.665 104.276 193.401 104.587 193.172Z" fill="#73A1FB"/>
<path d="M119.379 230.115C167.65 230.074 193.558 221.49 198.549 216.088C200.316 214.177 200.507 212.367 200.357 211.185C199.986 208.277 197.337 206.497 197.037 206.304C196.312 205.838 195.34 205.959 194.775 206.611C194.211 207.263 194.198 208.216 194.763 208.867C195.068 209.259 195.244 209.914 194.354 210.805C192.358 212.669 172.235 218.325 138.728 220.025C134.138 220.263 129.324 220.385 124.42 220.385C94.42 220.385 72.464 216.276 69.582 213.882C70.693 212.286 78.459 209.736 86.718 208.293C87.649 208.131 88.278 207.254 88.133 206.32C87.989 205.387 87.129 204.745 86.188 204.866C85.955 204.898 85.165 204.945 84.249 205.001C70.622 205.833 54.874 207.688 54.053 214.709C53.803 216.849 54.439 218.791 55.943 220.481C59.623 224.616 70.201 230.114 119.377 230.114L119.379 230.115Z" fill="#73A1FB"/>
<path d="M208.031 217.61C207.348 217.294 206.542 217.454 206.033 218.003C205.962 218.08 198.705 225.669 176.883 230.125C168.529 231.799 152.848 232.648 130.276 232.648C107.661 232.648 86.142 231.758 85.927 231.749C85.028 231.705 84.259 232.359 84.137 233.243C84.015 234.127 84.585 234.961 85.453 235.168C85.676 235.221 108.228 240.504 139.063 240.504C153.853 240.504 168.244 239.303 181.839 236.933C207.186 232.489 208.961 219.92 209.024 219.387C209.113 218.643 208.712 217.926 208.031 217.61Z" fill="#73A1FB"/>
</g>
<defs>
<clipPath id="clip0_1_50">
<rect width="256" height="256" fill="white"/>
</clipPath>
</defs>
</svg>
