<svg width="256" height="256" viewBox="0 0 256 256" fill="none" xmlns="http://www.w3.org/2000/svg">
<g clip-path="url(#clip0_1_50)">
<path d="M196 0H60C26.8629 0 0 26.8629 0 60V196C0 229.137 26.8629 256 60 256H196C229.137 256 256 229.137 256 196V60C256 26.8629 229.137 0 196 0Z" fill="#242938"/>
<g clip-path="url(#clip1_1_50)">
<path d="M86.6356 39.1469C81.0133 42.1721 54.9067 57.3469 53.9289 58.1276C53 58.9083 53 60.2745 53 117.9C53 164.302 53.1467 177.038 53.6356 177.623C54.32 178.501 123.009 218.024 123.84 218.024C124.182 218.024 140.12 208.997 159.284 197.97C185.538 182.942 194.24 177.672 194.484 176.891C194.631 176.306 194.778 167.474 194.778 157.276L194.827 138.735L211.4 129.317C220.493 124.097 228.071 119.559 228.218 119.12C228.658 118.046 228.56 78.3282 228.12 77.6938C227.924 77.3523 224.356 75.1566 220.2 72.7657C196.342 59.0059 192.724 57.0054 191.893 57.0054C190.867 57.0054 156.156 76.7668 155.569 77.6451C155.373 77.9866 155.178 86.7694 155.178 97.2601V116.29L147.209 120.827C142.858 123.267 136.502 126.927 133.08 128.927C129.707 130.928 126.773 132.44 126.627 132.245C126.48 132.099 126.333 115.46 126.333 95.3083C126.333 63.2022 126.236 58.518 125.6 57.9812C124.72 57.2493 91.6711 38.3174 90.4978 37.8295C90.0089 37.6343 88.4933 38.1711 86.6356 39.1469ZM104.138 51.7357C111.764 56.1271 117.973 59.7866 118.022 59.933C118.022 60.4209 90.1556 76.0837 89.52 75.9373C88.5911 75.6933 61.8 60.2745 61.8 59.933C61.8 59.5914 89.2756 43.8311 89.8622 43.8311C90.1067 43.8311 96.5111 47.393 104.138 51.7357ZM206.12 70.9603C213.893 75.4493 220.151 79.1577 220.102 79.2552C220.004 79.304 213.6 83.0123 205.876 87.4526L191.844 95.5035L177.813 87.4526C170.089 83.0123 163.684 79.304 163.587 79.2064C163.44 79.1089 191.307 62.9582 191.796 62.8606C191.893 62.8606 198.347 66.5201 206.12 70.9603ZM73.24 73.1072L87.2222 81.1582V119.754C87.2222 150.055 87.3689 158.496 87.8578 158.838C88.1511 159.13 95.7778 163.473 104.724 168.499L120.956 177.623V193.92V210.217L119.342 209.388C118.413 208.9 104.333 200.849 88.0533 191.48L58.3778 174.451V119.608C58.3778 89.1115 58.5733 64.8123 58.8178 64.9099C59.0133 64.9587 65.5156 68.667 73.24 73.1072ZM120.956 100.334V135.905L107.902 143.37C100.667 147.517 94.3111 151.177 93.7244 151.567L92.6 152.25V116.68V81.0606L105.213 73.8392C112.107 69.8869 118.462 66.2274 119.244 65.7394C120.076 65.2515 120.76 64.8123 120.858 64.8123C120.907 64.8123 120.956 80.8166 120.956 100.334ZM223.133 100.09V116.338L219.613 118.339C217.658 119.412 211.253 123.072 205.436 126.439L194.778 132.587V116.387V100.139L208.858 92.0392C216.582 87.5989 222.938 83.8906 223.036 83.8906C223.084 83.8418 223.133 91.1609 223.133 100.09ZM175.124 92.2343L188.911 100.139V116.338V132.587L178.302 126.439C172.436 123.072 166.031 119.412 164.124 118.29L160.556 116.29V100.285C160.556 91.5024 160.702 84.3298 160.947 84.3298C161.142 84.3298 167.498 87.8917 175.124 92.2343ZM172.924 129.708C180.111 133.806 185.978 137.32 185.978 137.515C185.978 137.71 185.489 138.051 184.902 138.344C184.267 138.637 170.431 146.444 154.102 155.764C137.773 165.034 124.182 172.646 123.84 172.646C123.302 172.646 96.7067 157.862 95.9244 157.13C95.7289 156.935 109.613 148.737 126.724 138.881C154.493 122.974 157.964 121.071 158.844 121.608C159.382 121.95 165.689 125.609 172.924 129.708ZM188.324 174.842C187.64 175.476 128.191 209.583 127.067 210.071C126.431 210.315 126.333 208.265 126.431 194.066L126.578 177.769L157.622 160.057L188.667 142.394L188.813 158.35C188.911 170.743 188.764 174.451 188.324 174.842Z" fill="#F74646"/>
</g>
</g>
<defs>
<clipPath id="clip0_1_50">
<rect width="256" height="256" fill="white"/>
</clipPath>
<clipPath id="clip1_1_50">
<rect width="176" height="182" fill="white" transform="translate(53 37)"/>
</clipPath>
</defs>
</svg>
