<svg width="256" height="256" viewBox="0 0 256 256" fill="none" xmlns="http://www.w3.org/2000/svg">
<g clip-path="url(#clip0_1_50)">
<path d="M196 0H60C26.8629 0 0 26.8629 0 60V196C0 229.137 26.8629 256 60 256H196C229.137 256 256 229.137 256 196V60C256 26.8629 229.137 0 196 0Z" fill="#242938"/>
<g clip-path="url(#clip1_1_50)">
<path d="M147.66 34.9379C145.392 35.4496 138 35.9612 131.28 36.0464C120.36 36.1317 118.596 36.3875 114.06 38.2634L109.02 40.3951L103.56 38.775C99.444 37.5813 95.244 37.1549 86.34 37.0696C75.84 36.9844 74.076 37.2402 69.792 38.9455C61.224 42.4415 54.756 50.6272 52.32 61.2004C48.12 79.4478 60.3 128.477 72.648 142.717C77.94 148.856 85.248 150.476 90.792 146.895C92.472 145.786 92.976 145.871 96.672 148.003C100.116 150.135 101.46 150.391 107.76 150.391C111.708 150.391 115.908 150.05 117.252 149.623L119.52 148.941V154.313C119.604 171.708 124.14 183.901 131.868 187.141C137.832 189.699 150.096 187.482 156.06 182.878C162.024 178.188 165.804 167.785 166.98 152.693L167.568 144.848H171.264C183.024 144.848 196.38 137.856 198.144 130.779C198.816 128.05 196.8 124.213 194.028 122.849C192.096 121.911 190.584 121.911 185.796 122.764C182.604 123.361 179.748 123.531 179.496 123.275C179.16 123.02 180.336 120.376 181.932 117.392C192.516 98.1214 199.404 70.921 196.8 58.4719C195.96 54.2938 195.12 52.7589 190.836 48.1545C185.712 42.6121 178.992 38.3487 171.852 36.1317C166.56 34.5116 153.036 33.8295 147.66 34.9379ZM172.02 40.1393C181.512 43.2942 190.416 50.7978 192.6 57.4487C194.112 62.2237 193.188 75.3549 190.5 85.0755C187.812 95.2223 182.016 109.121 176.724 118.5C173.448 124.299 172.86 125.833 173.868 126.345C174.54 126.771 179.328 126.942 184.452 126.771C193.524 126.516 193.86 126.601 194.112 128.306C194.448 130.95 190.668 135.042 185.292 137.771C181.092 139.817 179.496 140.073 172.692 140.158H164.964L164.46 143.569C160.596 173.072 159.588 176.568 153.96 180.32C149.844 183.048 143.796 184.924 138.924 184.924C133.464 184.924 129.096 182.11 126.072 176.653C123.972 172.987 123.552 170.855 122.88 162.584C122.46 157.297 122.04 150.561 122.04 147.662V142.375L118.092 144.507C114.564 146.468 113.22 146.639 107.172 146.383C101.796 146.213 99.78 145.701 97.932 144.337C93.06 140.585 95.58 137.174 104.988 134.616C107.004 134.104 109.524 132.655 110.7 131.461L112.716 129.159L108.348 127.965L103.98 126.857L95.58 135.895C86.844 145.275 85.5 145.957 80.712 144.081C73.236 141.182 65.424 124.981 59.124 99.2299C53.16 74.5875 53.496 61.7973 60.468 50.9683C67.104 40.6509 82.728 37.2402 101.544 42.1004L109.776 44.2321L113.304 42.5268C118.764 39.7982 126.24 38.775 132.96 39.7982C137.076 40.3951 139.764 40.3951 142.032 39.7982C151.272 37.1549 163.536 37.2402 172.02 40.1393Z" fill="#5176E5"/>
<path d="M152.7 42.271C146.82 42.7826 146.82 43.2089 151.944 46.6196C158.664 51.0536 165.552 58.813 169.5 66.4871C172.188 71.7737 172.776 73.5643 172.692 77.4866C172.608 80.0447 172.44 89.6799 172.272 98.8036C172.104 112.276 171.768 115.942 170.592 118.159C169.836 119.694 169.5 120.973 169.92 120.973C171.012 120.973 177.732 108.013 181.26 99.2299C187.56 83.3701 190.752 65.4638 188.484 58.4719C186.636 52.7589 176.64 45.4259 168.156 43.4647C163.536 42.4415 157.152 41.9299 152.7 42.271Z" fill="#5176E5"/>
<path d="M121.956 44.2321C110.112 46.2786 102.048 56.1697 98.94 72.5411C98.352 75.7813 97.932 78.3393 98.016 78.3393C98.016 78.3393 100.116 77.5719 102.552 76.6339C107.424 74.758 114.144 74.417 117.42 75.9518C120.528 77.4013 122.628 81.3237 123.72 88.0598C125.4 97.5246 124.476 106.478 120.948 115.601C119.184 119.95 117.84 123.787 117.84 124.213C117.84 124.554 119.016 125.237 120.528 125.663C121.956 126.175 123.972 127.624 124.896 128.903C126.492 131.035 126.66 132.314 126.408 139.988C126.324 144.763 126.576 153.801 126.996 159.941C127.92 172.56 129.348 176.568 133.968 179.382C139.512 182.707 151.944 178.87 154.968 172.901C156.564 169.661 159.504 152.096 160.344 139.732C161.016 131.12 162.36 127.283 165.3 125.919C167.4 124.981 167.4 124.981 165.804 123.19C162.948 120.035 151.776 96.8424 150.684 91.7263C148.248 80.6415 153.204 74.0759 163.956 74.0759H168.24L167.232 71.6884C163.536 63.1616 156.396 54.5496 149.088 49.8598C141.948 45.2554 130.104 42.7826 121.956 44.2321Z" fill="#5176E5"/>
<path d="M75.168 45.5111C69.036 47.4723 65.172 50.7978 62.316 56.596C57.276 67.0839 58.284 81.2384 66.18 108.865C71.892 129.244 79.536 141.949 84.996 140.158C85.92 139.903 89.7 136.236 93.396 132.058L100.116 124.469L97.26 120.206C95.748 117.818 94.152 114.237 93.732 112.191C93.228 110.144 93.144 100.509 93.48 89.8504C94.068 72.5411 94.236 70.5799 96.336 64.2701C97.596 60.5183 100.116 55.317 101.88 52.5884C103.728 49.9451 104.904 47.5576 104.568 47.3018C104.232 47.1312 101.04 46.3638 97.512 45.5964C89.7 43.9763 80.124 43.8911 75.168 45.5111Z" fill="#5176E5"/>
<path d="M158.58 79.192C157.572 79.533 156.312 80.471 155.724 81.2384C154.296 82.9437 154.296 88.9978 155.64 93.4317C156.564 96.2455 165.3 114.834 166.224 115.772C167.484 117.136 167.82 112.702 167.82 96.5866V78.3393L164.04 78.4245C161.94 78.4245 159.504 78.7656 158.58 79.192ZM164.46 80.9826C165.132 82.0058 162.612 85.1607 161.1 85.1607C160.596 85.1607 159.42 84.5638 158.496 83.8817C156.9 82.6027 156.9 82.6027 158.496 81.3237C160.428 79.8741 163.704 79.6183 164.46 80.9826Z" fill="#5176E5"/>
<path d="M102.72 81.4089L98.1 83.5406L97.932 97.6098C97.68 113.299 98.352 115.942 103.476 120.376C106.164 122.593 111.708 124.896 112.548 124.043C114.312 122.252 119.688 106.137 120.108 101.362C120.78 93.517 119.016 83.7112 116.496 81.1531C113.892 78.5098 108.768 78.5951 102.72 81.4089ZM114.396 81.8353C117.672 83.029 117.588 85.1607 114.228 86.3545C112.296 87.0366 111.624 86.8661 110.028 85.246C108.18 83.3701 108.18 83.3701 109.776 82.0911C111.792 80.6415 111.12 80.7268 114.396 81.8353Z" fill="#5176E5"/>
<path d="M114.9 133.337C112.38 136.407 110.868 137.43 107.004 138.538C104.4 139.306 101.712 140.159 101.04 140.329C98.352 141.182 104.148 142.461 109.608 142.12C114.396 141.864 115.74 141.438 118.428 139.221C121.956 136.321 122.88 133.081 120.78 130.864C118.764 128.903 118.26 129.074 114.9 133.337Z" fill="#5176E5"/>
<path d="M166.812 130.523C166.308 131.12 165.636 132.484 165.384 133.508C164.88 135.042 165.216 135.554 166.98 135.98C171.012 137.004 179.664 135.639 184.116 133.337C186.468 132.143 188.4 131.12 188.4 130.95C188.4 130.864 184.872 130.779 180.672 130.779C176.388 130.779 171.684 130.438 170.256 130.097C168.492 129.585 167.484 129.671 166.812 130.523Z" fill="#5176E5"/>
<path d="M33.84 202.83C33.84 214.427 34.008 216.473 35.1 216.473C36.108 216.473 36.36 215.279 36.36 210.931V205.388H39.72C47.616 205.388 51.816 199.761 48.876 193.195C47.616 190.296 44.76 189.188 38.88 189.188H33.84V202.83ZM44.928 193.195C48.792 196.691 45.348 203.171 39.888 202.66L36.78 202.404L36.528 197.032L36.276 191.746H39.804C41.904 191.746 44.004 192.342 44.928 193.195Z" fill="#5176E5"/>
<path d="M161.184 190.978C159.672 192.172 159 193.536 159 195.242C159 198.993 160.344 200.869 164.292 202.916C169.08 205.388 170.76 207.008 170.76 209.225C170.76 212.466 168.072 214.086 163.116 213.745C160.344 213.574 158.58 213.83 158.412 214.427C157.992 215.621 160.848 216.473 165.552 216.473C171.852 216.473 175.968 210.504 173.28 205.303C172.776 204.45 170.172 202.575 167.4 201.125C162.276 198.482 160.596 196.009 162.444 193.792C164.376 191.404 166.476 190.808 169.5 191.66C172.104 192.342 172.44 192.257 172.44 190.808C172.44 188.42 164.292 188.505 161.184 190.978Z" fill="#5176E5"/>
<path d="M184.536 190.04C180.252 191.746 176.892 199.505 177.9 205.303C179.076 212.636 181.764 214.768 193.44 218.093C200.916 220.225 201.84 220.31 201.84 218.69C201.84 217.838 200.496 217.241 197.976 216.814L194.112 216.217L196.8 214.086C198.312 212.892 200.076 210.675 200.664 209.14C203.352 202.66 200.916 193.11 196.044 190.552C193.356 189.102 187.392 188.846 184.536 190.04ZM192.936 192.087C198.9 194.645 200.496 206.071 195.54 211.357C188.904 218.349 179.244 210.675 181.176 199.931C181.848 196.521 184.536 192.769 187.056 191.746C189.492 190.722 189.744 190.722 192.936 192.087Z" fill="#5176E5"/>
<path d="M206.88 202.83V216.473H214.02C219.816 216.473 221.16 216.217 221.16 215.194C221.16 214.171 219.984 213.915 215.7 213.915H210.24V201.551C210.24 189.784 210.156 189.188 208.56 189.188C206.964 189.188 206.88 189.784 206.88 202.83Z" fill="#5176E5"/>
<path d="M92.64 193.963C92.64 195.412 92.136 196.35 90.96 196.606C90.036 196.862 89.28 197.629 89.28 198.226C89.28 198.908 90.036 199.42 90.96 199.42C92.472 199.42 92.64 200.017 92.64 206.923C92.64 211.613 92.976 214.768 93.648 215.45C95.16 216.985 100.2 216.814 100.2 215.194C100.2 214.512 99.444 213.915 98.52 213.915C96.168 213.915 95.16 211.357 95.16 205.047V199.42H97.68C99.36 199.42 100.2 198.993 100.2 198.141C100.2 197.288 99.36 196.862 97.68 196.862C95.412 196.862 95.16 196.606 95.16 194.304C95.16 192.598 94.74 191.746 93.9 191.746C93.144 191.746 92.64 192.598 92.64 193.963Z" fill="#5176E5"/>
<path d="M79.62 196.691C76.932 197.203 75 199.505 75 201.978C75 204.536 76.092 205.729 80.292 207.861C82.224 208.884 82.98 209.822 82.98 211.357C82.98 213.318 82.644 213.489 79.2 213.489C75.588 213.489 73.824 214.342 74.664 215.791C74.916 216.132 76.932 216.473 79.284 216.473C83.988 216.473 86.76 214.427 86.76 211.016C86.76 208.458 84.996 206.582 81.216 204.962C79.032 204.024 78.36 203.257 78.36 201.637C78.36 199.334 79.116 198.993 83.736 199.334C85.332 199.505 86.004 199.164 85.752 198.482C85.332 197.203 81.972 196.179 79.62 196.691Z" fill="#5176E5"/>
<path d="M133.212 196.947C132.204 197.288 131.028 198.311 130.524 199.164C129.684 200.528 129.684 200.528 129.6 198.738C129.6 197.458 129.096 196.862 127.92 196.862C126.324 196.862 126.24 197.458 126.24 206.667C126.24 215.706 126.324 216.473 127.836 216.473C129.264 216.473 129.432 215.706 129.684 209.737C130.02 202.575 131.616 199.42 134.808 199.42C135.648 199.42 136.32 198.908 136.32 198.226C136.32 196.521 135.396 196.094 133.212 196.947Z" fill="#5176E5"/>
<path d="M144.048 197.032C137.16 198.823 135.816 212.125 142.116 215.621C143.88 216.558 150.516 216.814 152.616 215.962C155.304 214.938 153.036 213.489 149.004 213.745C145.728 214 144.552 213.745 143.124 212.295C142.116 211.272 141.36 209.737 141.36 208.799C141.36 207.264 141.948 207.094 148.164 207.094H155.052L154.548 204.024C153.624 198.311 149.592 195.583 144.048 197.032ZM149.76 200.272C152.868 203.427 151.944 204.536 146.4 204.536C140.856 204.536 140.184 203.768 143.208 200.528C145.392 198.141 147.576 198.055 149.76 200.272Z" fill="#5176E5"/>
<path d="M56.268 197.8C51.06 200.869 51.228 212.721 56.436 215.621C60.72 217.923 68.028 215.791 69.792 211.783C71.976 207.008 70.296 199.761 66.684 197.714C64.584 196.606 58.2 196.606 56.268 197.8ZM64.164 199.42C65.256 199.42 67.44 204.109 67.44 206.582C67.44 211.783 64.164 214.768 59.628 213.574C56.268 212.721 54.42 205.9 56.604 201.892C57.612 199.931 60.552 198.482 62.232 199.079C62.904 199.249 63.744 199.42 64.164 199.42Z" fill="#5176E5"/>
<path d="M105.744 202.468C100.62 208.692 102.972 217.816 110.028 219.18C112.296 219.606 113.472 219.351 115.488 217.816L118.092 215.855L117.588 219.18C116.748 224.552 112.716 226.684 107.424 224.637C105.576 223.955 105.24 224.04 105.24 225.49C105.24 227.622 111.708 228.73 115.404 227.195C119.604 225.405 120.192 223.614 120.528 211.165C120.78 200.933 120.612 199.909 119.352 199.909C118.512 199.909 117.84 200.506 117.84 201.359C117.84 202.638 117.756 202.638 116.328 201.359C115.404 200.506 113.388 199.909 111.372 199.909C108.516 199.909 107.508 200.421 105.744 202.468ZM115.992 203.491C118.68 206.987 118.092 213.638 114.9 215.769C108.768 219.777 103.392 209.886 108.432 203.917C109.944 202.212 114.732 201.956 115.992 203.491Z" fill="#5176E5"/>
</g>
</g>
<defs>
<clipPath id="clip0_1_50">
<rect width="256" height="256" fill="white"/>
</clipPath>
<clipPath id="clip1_1_50">
<rect width="189" height="191" fill="white" transform="translate(33 34)"/>
</clipPath>
</defs>
</svg>
