<svg width="256" height="256" viewBox="0 0 256 256" fill="none" xmlns="http://www.w3.org/2000/svg">
<g clip-path="url(#clip0_1_50)">
<path d="M196 0H60C26.8629 0 0 26.8629 0 60V196C0 229.137 26.8629 256 60 256H196C229.137 256 256 229.137 256 196V60C256 26.8629 229.137 0 196 0Z" fill="#242938"/>
<g clip-path="url(#clip1_1_50)">
<path fill-rule="evenodd" clip-rule="evenodd" d="M77.9635 184.967C80.747 187.214 84.832 186.796 87.074 184.007C89.3302 181.229 88.9075 177.144 86.124 174.887C83.3453 172.636 79.265 173.068 77.004 175.847C74.8665 178.483 75.142 182.288 77.5503 184.606L76.2867 183.494C61.367 169.62 52 149.836 52 127.895C52 86.048 86.048 52 127.905 52C149.185 52 168.423 60.8207 182.221 74.971C185.356 70.7055 188.073 65.9365 190.296 60.6497C199.967 89.7103 205.653 114.135 203.572 133.372C200.76 172.674 167.909 203.815 127.905 203.815C109.323 203.815 92.299 197.089 79.094 185.969L77.9635 184.967ZM189.968 161.302C209.016 135.956 198.4 94.9685 189.565 68.7722C181.694 85.174 162.309 97.7188 145.57 101.69C129.881 105.433 115.997 102.364 101.476 107.95C68.3685 120.68 68.891 160.162 87.131 169.035C87.1405 169.035 88.2235 169.624 88.2093 169.605C88.2093 169.596 115.018 164.276 129.838 158.804C151.498 150.805 175.277 131.088 183.1 108.183C178.934 132.004 158.486 154.923 137.942 165.449C127.007 171.064 118.505 172.313 100.512 178.54C98.3078 179.29 96.5788 180.032 96.5788 180.032C101.139 179.272 105.685 179.025 105.685 179.025C131.301 177.813 171.268 186.225 189.973 161.307L189.968 161.302Z" fill="#70AD51"/>
</g>
</g>
<defs>
<clipPath id="clip0_1_50">
<rect width="256" height="256" fill="white"/>
</clipPath>
<clipPath id="clip1_1_50">
<rect width="152" height="152" fill="white" transform="translate(52 52)"/>
</clipPath>
</defs>
</svg>
